<svg xmlns="http://www.w3.org/2000/svg" width="2305" height="1653" viewBox="0 0 2305 1653">
<rect x="0" y="0" width="2305" height="1653" fill="#ffffff"/>
<defs><marker id="arrow-investor-portalUses" viewBox="0 0 6.72 6.72" refX="5.819999999999999" refY="3.36" markerWidth="6.72" markerHeight="6.72" orient="auto" markerUnits="userSpaceOnUse"><path d="M 0 0 L 6.72 3.36 L 0 6.72 z" fill="#5B6670"/></marker></defs>
<defs><marker id="arrow-portal-onboardingSubmitsinvestordataandduediligencerequests" viewBox="0 0 6.72 6.72" refX="5.819999999999999" refY="3.36" markerWidth="6.72" markerHeight="6.72" orient="auto" markerUnits="userSpaceOnUse"><path d="M 0 0 L 6.72 3.36 L 0 6.72 z" fill="#5B6670"/></marker></defs>
<defs><marker id="arrow-onboarding-whitelistApproveswalletsandeligibility" viewBox="0 0 6.72 6.72" refX="5.819999999999999" refY="3.36" markerWidth="6.72" markerHeight="6.72" orient="auto" markerUnits="userSpaceOnUse"><path d="M 0 0 L 6.72 3.36 L 0 6.72 z" fill="#5B6670"/></marker></defs>
<defs><marker id="arrow-portal-taSubmitssubscriptionsredemptionsandservicingrequests" viewBox="0 0 6.72 6.72" refX="5.819999999999999" refY="3.36" markerWidth="6.72" markerHeight="6.72" orient="auto" markerUnits="userSpaceOnUse"><path d="M 0 0 L 6.72 3.36 L 0 6.72 z" fill="#5B6670"/></marker></defs>
<defs><marker id="arrow-ta-faSendsauthoritativeownershipandissuanceredemptionevents" viewBox="0 0 6.72 6.72" refX="5.819999999999999" refY="3.36" markerWidth="6.72" markerHeight="6.72" orient="auto" markerUnits="userSpaceOnUse"><path d="M 0 0 L 6.72 3.36 L 0 6.72 z" fill="#5B6670"/></marker></defs>
<defs><marker id="arrow-fa-custodyTriggerssettlementandreceivessettlementstatus" viewBox="0 0 6.72 6.72" refX="5.819999999999999" refY="3.36" markerWidth="6.72" markerHeight="6.72" orient="auto" markerUnits="userSpaceOnUse"><path d="M 0 0 L 6.72 3.36 L 0 6.72 z" fill="#5B6670"/></marker></defs>
<defs><marker id="arrow-fa-portfolioProvidespositionsandvaluationinputs" viewBox="0 0 6.72 6.72" refX="5.819999999999999" refY="3.36" markerWidth="6.72" markerHeight="6.72" orient="auto" markerUnits="userSpaceOnUse"><path d="M 0 0 L 6.72 3.36 L 0 6.72 z" fill="#5B6670"/></marker></defs>
<defs><marker id="arrow-ta-reportingProvidesservicingandownershipdata" viewBox="0 0 6.72 6.72" refX="5.819999999999999" refY="3.36" markerWidth="6.72" markerHeight="6.72" orient="auto" markerUnits="userSpaceOnUse"><path d="M 0 0 L 6.72 3.36 L 0 6.72 z" fill="#5B6670"/></marker></defs>
<defs><marker id="arrow-fa-reportingProvidesNAVpositionandeventdata" viewBox="0 0 6.72 6.72" refX="5.819999999999999" refY="3.36" markerWidth="6.72" markerHeight="6.72" orient="auto" markerUnits="userSpaceOnUse"><path d="M 0 0 L 6.72 3.36 L 0 6.72 z" fill="#5B6670"/></marker></defs>
<defs><marker id="arrow-portfolio-reportingProvidescontrolandeligibilitydata" viewBox="0 0 6.72 6.72" refX="5.819999999999999" refY="3.36" markerWidth="6.72" markerHeight="6.72" orient="auto" markerUnits="userSpaceOnUse"><path d="M 0 0 L 6.72 3.36 L 0 6.72 z" fill="#5B6670"/></marker></defs>
<defs><marker id="arrow-ta-tokenEngineConfirmedissuanceredemptionevents" viewBox="0 0 6.72 6.72" refX="5.819999999999999" refY="3.36" markerWidth="6.72" markerHeight="6.72" orient="auto" markerUnits="userSpaceOnUse"><path d="M 0 0 L 6.72 3.36 L 0 6.72 z" fill="#5B6670"/></marker></defs>
<defs><marker id="arrow-whitelist-tokenEngineWalleteligibilityandtransferpolicy" viewBox="0 0 6.72 6.72" refX="5.819999999999999" refY="3.36" markerWidth="6.72" markerHeight="6.72" orient="auto" markerUnits="userSpaceOnUse"><path d="M 0 0 L 6.72 3.36 L 0 6.72 z" fill="#5B6670"/></marker></defs>
<defs><marker id="arrow-tokenEngine-tokenMintsburnsandmanagestransfercontrols" viewBox="0 0 6.72 6.72" refX="5.819999999999999" refY="3.36" markerWidth="6.72" markerHeight="6.72" orient="auto" markerUnits="userSpaceOnUse"><path d="M 0 0 L 6.72 3.36 L 0 6.72 z" fill="#5B6670"/></marker></defs>
<defs><marker id="arrow-ta-reconOfficialsharebalances" viewBox="0 0 6.72 6.72" refX="5.819999999999999" refY="3.36" markerWidth="6.72" markerHeight="6.72" orient="auto" markerUnits="userSpaceOnUse"><path d="M 0 0 L 6.72 3.36 L 0 6.72 z" fill="#5B6670"/></marker></defs>
<defs><marker id="arrow-token-reconOn-chaintokensupplyandevents" viewBox="0 0 6.72 6.72" refX="5.819999999999999" refY="3.36" markerWidth="6.72" markerHeight="6.72" orient="auto" markerUnits="userSpaceOnUse"><path d="M 0 0 L 6.72 3.36 L 0 6.72 z" fill="#5B6670"/></marker></defs>
<defs><marker id="arrow-tokenEngine-reconPendingmintburnstate" viewBox="0 0 6.72 6.72" refX="5.819999999999999" refY="3.36" markerWidth="6.72" markerHeight="6.72" orient="auto" markerUnits="userSpaceOnUse"><path d="M 0 0 L 6.72 3.36 L 0 6.72 z" fill="#5B6670"/></marker></defs>
<path d="M 110.13 1126 L 206.09 1126" transform="translate(160.0016 50)" fill="none" stroke="#5B6670" stroke-width="1.5" stroke-dasharray="6 4" marker-end="url(#arrow-investor-portalUses)"/>
<text x="318.11159999999995" y="1168" text-anchor="middle" dominant-baseline="middle" font-family="ui-sans-serif, system-ui, sans-serif" font-size="11" font-weight="600" fill="#5B6670">Uses</text>
<path d="M 438.13 1197.5 L 534.09 1197.5" transform="translate(160.0016 50)" fill="none" stroke="#5B6670" stroke-width="1.5" stroke-dasharray="6 4" marker-end="url(#arrow-portal-onboardingSubmitsinvestordataandduediligencerequests)"/>
<text x="646.1116" y="1226.3" text-anchor="middle" dominant-baseline="middle" font-family="ui-sans-serif, system-ui, sans-serif" font-size="11" font-weight="600" fill="#5B6670">Submits investor</text>
<text x="646.1116" y="1239.5" text-anchor="middle" dominant-baseline="middle" font-family="ui-sans-serif, system-ui, sans-serif" font-size="11" font-weight="600" fill="#5B6670">data and due</text>
<text x="646.1116" y="1252.7" text-anchor="middle" dominant-baseline="middle" font-family="ui-sans-serif, system-ui, sans-serif" font-size="11" font-weight="600" fill="#5B6670">diligence requests</text>
<path d="M 766.13 1278 L 862.09 1278" transform="translate(160.0016 50)" fill="none" stroke="#5B6670" stroke-width="1.5" stroke-dasharray="6 4" marker-end="url(#arrow-onboarding-whitelistApproveswalletsandeligibility)"/>
<text x="974.1116" y="1313.4" text-anchor="middle" dominant-baseline="middle" font-family="ui-sans-serif, system-ui, sans-serif" font-size="11" font-weight="600" fill="#5B6670">Approves wallets and</text>
<text x="974.1116" y="1326.6000000000001" text-anchor="middle" dominant-baseline="middle" font-family="ui-sans-serif, system-ui, sans-serif" font-size="11" font-weight="600" fill="#5B6670">eligibility</text>
<path d="M 438.17 1122.5 L 711.09 1122.5 C 984 1122.5 984 1122.5 984 1086.55 L 984 1050.59" transform="translate(160.0016 50)" fill="none" stroke="#5B6670" stroke-width="1.5" stroke-dasharray="6 4" marker-end="url(#arrow-portal-taSubmitssubscriptionsredemptionsandservicingrequests)"/>
<text x="907.0416" y="1144.7" text-anchor="middle" dominant-baseline="middle" font-family="ui-sans-serif, system-ui, sans-serif" font-size="11" font-weight="600" fill="#5B6670">Submits</text>
<text x="907.0416" y="1157.9" text-anchor="middle" dominant-baseline="middle" font-family="ui-sans-serif, system-ui, sans-serif" font-size="11" font-weight="600" fill="#5B6670">subscriptions,</text>
<text x="907.0416" y="1171.1000000000001" text-anchor="middle" dominant-baseline="middle" font-family="ui-sans-serif, system-ui, sans-serif" font-size="11" font-weight="600" fill="#5B6670">redemptions and</text>
<text x="907.0416" y="1184.3" text-anchor="middle" dominant-baseline="middle" font-family="ui-sans-serif, system-ui, sans-serif" font-size="11" font-weight="600" fill="#5B6670">servicing requests</text>
<path d="M 984 888.55 L 984 776.78 C 984 665 984 665 1087.2 665 L 1190.4 665" transform="translate(160.0016 50)" fill="none" stroke="#5B6670" stroke-width="1.5" stroke-dasharray="6 4" marker-end="url(#arrow-ta-faSendsauthoritativeownershipandissuanceredemptionevents)"/>
<text x="1144.0016" y="695.775" text-anchor="middle" dominant-baseline="middle" font-family="ui-sans-serif, system-ui, sans-serif" font-size="11" font-weight="600" fill="#5B6670">Sends authoritative</text>
<text x="1144.0016" y="708.975" text-anchor="middle" dominant-baseline="middle" font-family="ui-sans-serif, system-ui, sans-serif" font-size="11" font-weight="600" fill="#5B6670">ownership and</text>
<text x="1144.0016" y="722.175" text-anchor="middle" dominant-baseline="middle" font-family="ui-sans-serif, system-ui, sans-serif" font-size="11" font-weight="600" fill="#5B6670">issuance /</text>
<text x="1144.0016" y="735.375" text-anchor="middle" dominant-baseline="middle" font-family="ui-sans-serif, system-ui, sans-serif" font-size="11" font-weight="600" fill="#5B6670">redemption events</text>
<path d="M 1422.4 596.25 L 1512.7 596.25 C 1603 596.25 1603 596.25 1603 487.13 L 1603 378" transform="translate(160.0016 50)" fill="none" stroke="#5B6670" stroke-width="1.5" stroke-dasharray="6 4" marker-end="url(#arrow-fa-custodyTriggerssettlementandreceivessettlementstatus)"/>
<text x="1763.0016" y="606.2249999999999" text-anchor="middle" dominant-baseline="middle" font-family="ui-sans-serif, system-ui, sans-serif" font-size="11" font-weight="600" fill="#5B6670">Triggers settlement</text>
<text x="1763.0016" y="619.425" text-anchor="middle" dominant-baseline="middle" font-family="ui-sans-serif, system-ui, sans-serif" font-size="11" font-weight="600" fill="#5B6670">and receives</text>
<text x="1763.0016" y="632.6249999999999" text-anchor="middle" dominant-baseline="middle" font-family="ui-sans-serif, system-ui, sans-serif" font-size="11" font-weight="600" fill="#5B6670">settlement status</text>
<path d="M 1422.1 727 L 1518.1 727" transform="translate(160.0016 50)" fill="none" stroke="#5B6670" stroke-width="1.5" stroke-dasharray="6 4" marker-end="url(#arrow-fa-portfolioProvidespositionsandvaluationinputs)"/>
<text x="1630.1016" y="762.4" text-anchor="middle" dominant-baseline="middle" font-family="ui-sans-serif, system-ui, sans-serif" font-size="11" font-weight="600" fill="#5B6670">Provides positions</text>
<text x="1630.1016" y="775.6" text-anchor="middle" dominant-baseline="middle" font-family="ui-sans-serif, system-ui, sans-serif" font-size="11" font-weight="600" fill="#5B6670">and valuation inputs</text>
<path d="M 1094.2 926.5 L 1503.6 926.5 C 1913 926.5 1913 926.5 1913 776.73 L 1913 626.95" transform="translate(160.0016 50)" fill="none" stroke="#5B6670" stroke-width="1.5" stroke-dasharray="6 4" marker-end="url(#arrow-ta-reportingProvidesservicingandownershipdata)"/>
<text x="1813.3766" y="961.9" text-anchor="middle" dominant-baseline="middle" font-family="ui-sans-serif, system-ui, sans-serif" font-size="11" font-weight="600" fill="#5B6670">Provides servicing</text>
<text x="1813.3766" y="975.1" text-anchor="middle" dominant-baseline="middle" font-family="ui-sans-serif, system-ui, sans-serif" font-size="11" font-weight="600" fill="#5B6670">and ownership data</text>
<path d="M 1422.2 602.5 L 1846.2 602.5" transform="translate(160.0016 50)" fill="none" stroke="#5B6670" stroke-width="1.5" stroke-dasharray="6 4" marker-end="url(#arrow-fa-reportingProvidesNAVpositionandeventdata)"/>
<text x="1794.2016" y="631.3" text-anchor="middle" dominant-baseline="middle" font-family="ui-sans-serif, system-ui, sans-serif" font-size="11" font-weight="600" fill="#5B6670">Provides NAV,</text>
<text x="1794.2016" y="644.5" text-anchor="middle" dominant-baseline="middle" font-family="ui-sans-serif, system-ui, sans-serif" font-size="11" font-weight="600" fill="#5B6670">position and event</text>
<text x="1794.2016" y="657.6999999999999" text-anchor="middle" dominant-baseline="middle" font-family="ui-sans-serif, system-ui, sans-serif" font-size="11" font-weight="600" fill="#5B6670">data</text>
<path d="M 1677 713.6 L 1677 661.18 C 1677 608.75 1677 608.75 1761.55 608.75 L 1846.1 608.75" transform="translate(160.0016 50)" fill="none" stroke="#5B6670" stroke-width="1.5" stroke-dasharray="6 4" marker-end="url(#arrow-portfolio-reportingProvidescontrolandeligibilitydata)"/>
<text x="1869.1266" y="644.15" text-anchor="middle" dominant-baseline="middle" font-family="ui-sans-serif, system-ui, sans-serif" font-size="11" font-weight="600" fill="#5B6670">Provides control and</text>
<text x="1869.1266" y="657.35" text-anchor="middle" dominant-baseline="middle" font-family="ui-sans-serif, system-ui, sans-serif" font-size="11" font-weight="600" fill="#5B6670">eligibility data</text>
<path d="M 1094 1001.5 L 1221.5 1001.5 C 1349 1001.5 1349 1001.5 1349 1100.8 L 1349 1200.1" transform="translate(160.0016 50)" fill="none" stroke="#5B6670" stroke-width="1.5" stroke-dasharray="6 4" marker-end="url(#arrow-ta-tokenEngineConfirmedissuanceredemptionevents)"/>
<text x="1480.8016" y="1036.9" text-anchor="middle" dominant-baseline="middle" font-family="ui-sans-serif, system-ui, sans-serif" font-size="11" font-weight="600" fill="#5B6670">Confirmed issuance /</text>
<text x="1480.8016" y="1050.1000000000001" text-anchor="middle" dominant-baseline="middle" font-family="ui-sans-serif, system-ui, sans-serif" font-size="11" font-weight="600" fill="#5B6670">redemption events</text>
<path d="M 1094.1 1287 L 1190.1 1287" transform="translate(160.0016 50)" fill="none" stroke="#5B6670" stroke-width="1.5" stroke-dasharray="6 4" marker-end="url(#arrow-whitelist-tokenEngineWalleteligibilityandtransferpolicy)"/>
<text x="1302.1016" y="1322.4" text-anchor="middle" dominant-baseline="middle" font-family="ui-sans-serif, system-ui, sans-serif" font-size="11" font-weight="600" fill="#5B6670">Wallet eligibility</text>
<text x="1302.1016" y="1335.6000000000001" text-anchor="middle" dominant-baseline="middle" font-family="ui-sans-serif, system-ui, sans-serif" font-size="11" font-weight="600" fill="#5B6670">and transfer policy</text>
<path d="M 1422.1 1287 L 1518.1 1287" transform="translate(160.0016 50)" fill="none" stroke="#5B6670" stroke-width="1.5" stroke-dasharray="6 4" marker-end="url(#arrow-tokenEngine-tokenMintsburnsandmanagestransfercontrols)"/>
<text x="1630.1016" y="1315.8" text-anchor="middle" dominant-baseline="middle" font-family="ui-sans-serif, system-ui, sans-serif" font-size="11" font-weight="600" fill="#5B6670">Mints, burns and</text>
<text x="1630.1016" y="1329" text-anchor="middle" dominant-baseline="middle" font-family="ui-sans-serif, system-ui, sans-serif" font-size="11" font-weight="600" fill="#5B6670">manages transfer</text>
<text x="1630.1016" y="1342.2" text-anchor="middle" dominant-baseline="middle" font-family="ui-sans-serif, system-ui, sans-serif" font-size="11" font-weight="600" fill="#5B6670">controls</text>
<path d="M 1094.2 964 L 1558.6 964 C 2023 964 2023 964 2023 1082.08 L 2023 1200.16" transform="translate(160.0016 50)" fill="none" stroke="#5B6670" stroke-width="1.5" stroke-dasharray="6 4" marker-end="url(#arrow-ta-reconOfficialsharebalances)"/>
<text x="1836.6816000000001" y="999.4" text-anchor="middle" dominant-baseline="middle" font-family="ui-sans-serif, system-ui, sans-serif" font-size="11" font-weight="600" fill="#5B6670">Official share</text>
<text x="1836.6816000000001" y="1012.6" text-anchor="middle" dominant-baseline="middle" font-family="ui-sans-serif, system-ui, sans-serif" font-size="11" font-weight="600" fill="#5B6670">balances</text>
<path d="M 1750.1 1287 L 1846.1 1287" transform="translate(160.0016 50)" fill="none" stroke="#5B6670" stroke-width="1.5" stroke-dasharray="6 4" marker-end="url(#arrow-token-reconOn-chaintokensupplyandevents)"/>
<text x="1958.1016" y="1322.4" text-anchor="middle" dominant-baseline="middle" font-family="ui-sans-serif, system-ui, sans-serif" font-size="11" font-weight="600" fill="#5B6670">On-chain token</text>
<text x="1958.1016" y="1335.6000000000001" text-anchor="middle" dominant-baseline="middle" font-family="ui-sans-serif, system-ui, sans-serif" font-size="11" font-weight="600" fill="#5B6670">supply and events</text>
<path d="M 1275 1211.67 L 1275 1207.34 C 1275 1203 1275 1203 1621.5 1203 C 1968 1203 1968 1203 1968 1203.44 L 1968 1203.87" transform="translate(160.0016 50)" fill="none" stroke="#5B6670" stroke-width="1.5" stroke-dasharray="6 4" marker-end="url(#arrow-tokenEngine-reconPendingmintburnstate)"/>
<text x="1777.6016" y="1238.4" text-anchor="middle" dominant-baseline="middle" font-family="ui-sans-serif, system-ui, sans-serif" font-size="11" font-weight="600" fill="#5B6670">Pending mint / burn</text>
<text x="1777.6016" y="1251.6000000000001" text-anchor="middle" dominant-baseline="middle" font-family="ui-sans-serif, system-ui, sans-serif" font-size="11" font-weight="600" fill="#5B6670">state</text>
<rect x="362.0016" y="50" width="1892" height="1553" rx="6" ry="6" fill="#1F4E79" fill-opacity="0.1" stroke="#c8c8c8" stroke-width="1.5" stroke-linecap="round"/>
<text x="1308.0016" y="69" text-anchor="middle" dominant-baseline="middle" font-family="Inter, system-ui, sans-serif" font-size="13" font-weight="600" font-style="italic" fill="#c8c8c8">Tokenized MMF Platform</text>
<text x="1308.0016" y="81.9" text-anchor="middle" dominant-baseline="middle" font-family="Inter, system-ui, sans-serif" font-size="9" font-weight="400" fill="#c8c8c8" opacity="0.7">[softwareSystem]</text>
<g transform="translate(50 1101.0012)"><svg xmlns="http://www.w3.org/2000/svg" width="220.0032" height="149.9976" viewBox="0 0 220.0032 149.9976" style="overflow:visible"><g opacity="1"><rect x="0" y="0" width="220.0032" height="149.9976" rx="11.999808000000002" fill="#0B3A6A" fill-opacity="1" stroke="#084b8a" stroke-width="1.5"/><g opacity="0.7"><g transform="translate(119.20219199999998 37.82588394265487) scale(0.09491288495575222)" style="color:rgb(3, 17, 31)"><g transform="translate(0,911) scale(0.1,-0.1)" fill="currentColor" stroke="none"><path d="M4084 8675 c-116 -20 -256 -68 -344 -117 -142 -78 -270 -233 -287 -347 -10 -62 -17 -68 -85 -74 -173 -14 -319 -140 -344 -295 -6 -37 -9 -41 -50 -51 -66 -17 -66 -21 -61 -486 3 -329 7 -411 20 -460 9 -33 21 -91 27 -128 11 -74 24 -105 76 -182 31 -46 33 -54 28 -101 l-7 -52 -33 14 c-40 17 -75 10 -100 -17 -20 -22 -21 -61 -4 -284 28 -375 51 -559 75 -612 30 -67 61 -87 124 -81 l49 5 5 -56 c11 -127 78 -319 158 -455 77 -130 205 -292 282 -354 194 -159 431 -276 659 -326 79 -18 37 -20 -82 -6 -272 34 -524 119 -671 226 -26 19 -49 34 -53 34 -3 0 -6 -121 -6 -269 l0 -270 203 -137 c111 -76 306 -209 433 -296 l231 -158 127 0 126 0 152 103 c84 56 280 190 436 296 l282 193 0 390 0 391 59 86 c115 169 202 375 223 530 l12 88 48 -5 c34 -3 55 0 73 12 26 17 57 71 69 121 15 62 74 799 65 822 -16 42 -68 55 -118 28 l-29 -14 -5 52 c-5 48 -2 56 33 107 39 57 70 134 70 175 0 13 10 61 22 107 20 77 22 112 25 493 4 460 5 451 -64 473 -37 12 -41 17 -47 54 -24 150 -168 278 -331 295 -78 7 -79 9 -55 42 56 80 110 249 110 346 0 42 -6 43 -44 5 -63 -64 -216 -94 -362 -71 -87 14 -186 47 -369 121 -225 92 -272 102 -485 106 -128 2 -210 -1 -266 -11z"/><path d="M3125 3769 c-293 -116 -1136 -388 -1545 -497 -116 -31 -256 -60 -353 -72 -172 -21 -252 -73 -348 -223 -76 -117 -111 -193 -169 -363 -169 -493 -327 -1188 -374 -1639 -11 -106 -12 -142 -3 -147 29 -18 424 -143 652 -207 1058 -295 2061 -470 3004 -522 307 -17 948 -7 1251 20 911 80 1830 254 2755 521 230 67 404 122 528 170 l57 22 -5 46 c-38 349 -63 499 -152 897 -80 361 -202 781 -289 993 -40 96 -132 249 -186 308 -64 70 -166 112 -308 129 -190 22 -671 159 -1340 381 -223 74 -466 159 -540 189 -74 29 -138 51 -141 47 -3 -4 -12 -304 -18 -666 -17 -902 -21 -966 -61 -1086 -100 -296 -314 -687 -564 -1030 l-44 -61 -6 53 c-3 29 -22 242 -41 473 -43 516 -42 511 -71 613 -32 111 -64 184 -140 323 -68 126 -104 219 -104 272 0 27 12 48 61 103 93 105 119 156 119 234 -1 160 -91 230 -300 230 -209 0 -299 -70 -300 -230 0 -79 26 -129 120 -235 l62 -70 -5 -59 c-5 -50 -21 -92 -101 -250 -99 -198 -147 -325 -165 -436 -6 -36 -27 -258 -46 -495 -19 -236 -37 -450 -41 -475 l-6 -45 -24 30 c-167 207 -415 633 -529 909 -79 190 -86 224 -96 441 -9 204 -29 1150 -29 1353 0 61 -3 112 -7 111 -5 0 -75 -27 -158 -60z"/></g></g></g><text x="110.0016" y="74.9988" text-anchor="middle" dominant-baseline="middle" fill="#ffffff" font-size="11.999808000000002" font-family="Inter, system-ui, sans-serif" font-weight="600" style="user-select:none"/></g></svg><text x="110.0016" y="41.39880000000001" text-anchor="middle" dominant-baseline="middle" fill="#ffffff" font-size="16" font-family="Inter, system-ui, sans-serif" font-weight="600" style="user-select:none;font-size:16px">Investor / Institu...</text><text x="110.0016" y="58.99880000000001" text-anchor="middle" dominant-baseline="middle" fill="#ffffff" font-size="9" font-family="Inter, system-ui, sans-serif" font-weight="600" opacity="0.7" style="user-select:none;font-size:9px">[Person]</text><text x="110.0016" y="76.99880000000002" text-anchor="middle" dominant-baseline="middle" fill="#ffffff" font-size="12" font-family="Inter, system-ui, sans-serif" font-weight="400" opacity="0.7" style="user-select:none;font-size:12px">Approved institutional</text><text x="110.0016" y="93.79880000000001" text-anchor="middle" dominant-baseline="middle" fill="#ffffff" font-size="12" font-family="Inter, system-ui, sans-serif" font-weight="400" opacity="0.7" style="user-select:none;font-size:12px">investor using portal, API</text><text x="110.0016" y="110.59880000000001" text-anchor="middle" dominant-baseline="middle" fill="#ffffff" font-size="12" font-family="Inter, system-ui, sans-serif" font-weight="400" opacity="0.7" style="user-select:none;font-size:12px">or wallet interface.</text></g>
<g transform="translate(378 1101.0012)"><g opacity="1"><g class="rf-node-root" style="--node-border:#084b8a;--node-fill:#EAF2F8;--node-fill-hover:rgb(235, 242, 248);--accent:var(--accent, var(--editor-node-border-hover, var(--vscode-focusBorder, #3b82f6)));--node-shape-transition:transform 140ms ease-out, stroke 140ms ease-out, stroke-width 140ms ease-out, fill 140ms ease-out, filter 140ms ease-out" opacity="1"><g class="node-hitbox"><rect x="0" y="0" width="220" height="150" fill="transparent" fill-opacity="0.001"/></g><g class="node-visual" style="transition:filter 140ms ease-out"><rect class="node-shape" x="0.5" y="0.5" width="219" height="149" rx="12" ry="12" fill="#EAF2F8" fill-opacity="1" stroke="#084b8a" stroke-width="1"/></g></g><text x="110" y="24" text-anchor="middle" dominant-baseline="middle" fill="#15395E" font-size="16" font-family="Inter, system-ui, sans-serif" font-weight="600" style="user-select:none;font-size:16px">Portal / API / Wal...</text><text x="110" y="41.6" text-anchor="middle" dominant-baseline="middle" fill="#15395E" font-size="9" font-family="Inter, system-ui, sans-serif" font-weight="400" opacity="0.85" style="user-select:none;font-size:9px">Web / API</text><text x="110" y="54.2" text-anchor="middle" dominant-baseline="middle" fill="#15395E" font-size="9" font-family="Inter, system-ui, sans-serif" font-weight="600" opacity="0.7" style="user-select:none;font-size:9px">[Container: Web / API]</text><text x="110" y="72.2" text-anchor="middle" dominant-baseline="middle" fill="#15395E" font-size="12" font-family="Inter, system-ui, sans-serif" font-weight="400" opacity="0.7" style="user-select:none;font-size:12px">Investor access channel for</text><text x="110" y="89" text-anchor="middle" dominant-baseline="middle" fill="#15395E" font-size="12" font-family="Inter, system-ui, sans-serif" font-weight="400" opacity="0.7" style="user-select:none;font-size:12px">subscriptions, redemptions,</text><text x="110" y="105.8" text-anchor="middle" dominant-baseline="middle" fill="#15395E" font-size="12" font-family="Inter, system-ui, sans-serif" font-weight="400" opacity="0.7" style="user-select:none;font-size:12px">reporting and wallet</text><text x="110" y="122.6" text-anchor="middle" dominant-baseline="middle" fill="#15395E" font-size="12" font-family="Inter, system-ui, sans-serif" font-weight="400" opacity="0.7" style="user-select:none;font-size:12px">interaction.</text></g></g>
<g transform="translate(706 1244.0012)"><g opacity="1"><g class="rf-node-root" style="--node-border:#084b8a;--node-fill:#EAF2F8;--node-fill-hover:rgb(235, 242, 248);--accent:var(--accent, var(--editor-node-border-hover, var(--vscode-focusBorder, #3b82f6)));--node-shape-transition:transform 140ms ease-out, stroke 140ms ease-out, stroke-width 140ms ease-out, fill 140ms ease-out, filter 140ms ease-out" opacity="1"><g class="node-hitbox"><rect x="0" y="0" width="220" height="150" fill="transparent" fill-opacity="0.001"/></g><g class="node-visual" style="transition:filter 140ms ease-out"><rect class="node-shape" x="0.5" y="0.5" width="219" height="149" rx="12" ry="12" fill="#EAF2F8" fill-opacity="1" stroke="#084b8a" stroke-width="1"/></g></g><text x="110" y="33.00000000000001" text-anchor="middle" dominant-baseline="middle" fill="#15395E" font-size="16" font-family="Inter, system-ui, sans-serif" font-weight="600" style="user-select:none;font-size:16px">KYC / AML / Sancti...</text><text x="110" y="50.60000000000001" text-anchor="middle" dominant-baseline="middle" fill="#15395E" font-size="9" font-family="Inter, system-ui, sans-serif" font-weight="400" opacity="0.85" style="user-select:none;font-size:9px">Compliance Services</text><text x="110" y="63.20000000000001" text-anchor="middle" dominant-baseline="middle" fill="#15395E" font-size="12" font-family="Inter, system-ui, sans-serif" font-weight="400" opacity="0.7" style="user-select:none;font-size:12px">[Container: Compliance</text><text x="110" y="80" text-anchor="middle" dominant-baseline="middle" fill="#15395E" font-size="12" font-family="Inter, system-ui, sans-serif" font-weight="400" opacity="0.7" style="user-select:none;font-size:12px">Services]</text><text x="110" y="96.8" text-anchor="middle" dominant-baseline="middle" fill="#15395E" font-size="12" font-family="Inter, system-ui, sans-serif" font-weight="400" opacity="0.7" style="user-select:none;font-size:12px">Investor onboarding and due</text><text x="110" y="113.6" text-anchor="middle" dominant-baseline="middle" fill="#15395E" font-size="12" font-family="Inter, system-ui, sans-serif" font-weight="400" opacity="0.7" style="user-select:none;font-size:12px">diligence services.</text></g></g>
<g transform="translate(1034 1262.0012)"><g opacity="1"><g class="rf-node-root" style="--node-border:#084b8a;--node-fill:#EAF2F8;--node-fill-hover:rgb(235, 242, 248);--accent:var(--accent, var(--editor-node-border-hover, var(--vscode-focusBorder, #3b82f6)));--node-shape-transition:transform 140ms ease-out, stroke 140ms ease-out, stroke-width 140ms ease-out, fill 140ms ease-out, filter 140ms ease-out" opacity="1"><g class="node-hitbox"><rect x="0" y="0" width="220" height="150" fill="transparent" fill-opacity="0.001"/></g><g class="node-visual" style="transition:filter 140ms ease-out"><rect class="node-shape" x="0.5" y="0.5" width="219" height="149" rx="12" ry="12" fill="#EAF2F8" fill-opacity="1" stroke="#084b8a" stroke-width="1"/></g></g><text x="110" y="40.8" text-anchor="middle" dominant-baseline="middle" fill="#15395E" font-size="16" font-family="Inter, system-ui, sans-serif" font-weight="600" style="user-select:none;font-size:16px">Wallet Whitelist S...</text><text x="110" y="58.4" text-anchor="middle" dominant-baseline="middle" fill="#15395E" font-size="9" font-family="Inter, system-ui, sans-serif" font-weight="400" opacity="0.85" style="user-select:none;font-size:9px">Policy Service</text><text x="110" y="71" text-anchor="middle" dominant-baseline="middle" fill="#15395E" font-size="9" font-family="Inter, system-ui, sans-serif" font-weight="600" opacity="0.7" style="user-select:none;font-size:9px">[Container: Policy Service]</text><text x="110" y="89" text-anchor="middle" dominant-baseline="middle" fill="#15395E" font-size="12" font-family="Inter, system-ui, sans-serif" font-weight="400" opacity="0.7" style="user-select:none;font-size:12px">Maintains approved wallets</text><text x="110" y="105.8" text-anchor="middle" dominant-baseline="middle" fill="#15395E" font-size="12" font-family="Inter, system-ui, sans-serif" font-weight="400" opacity="0.7" style="user-select:none;font-size:12px">and transfer restrictions.</text></g></g>
<g transform="translate(1034 939.0012)"><g opacity="1"><g class="rf-node-root" style="--node-border:#084b8a;--node-fill:#EAF2F8;--node-fill-hover:rgb(235, 242, 248);--accent:var(--accent, var(--editor-node-border-hover, var(--vscode-focusBorder, #3b82f6)));--node-shape-transition:transform 140ms ease-out, stroke 140ms ease-out, stroke-width 140ms ease-out, fill 140ms ease-out, filter 140ms ease-out" opacity="1"><g class="node-hitbox"><rect x="0" y="0" width="220" height="150" fill="transparent" fill-opacity="0.001"/></g><g class="node-visual" style="transition:filter 140ms ease-out"><rect class="node-shape" x="0.5" y="0.5" width="219" height="149" rx="12" ry="12" fill="#EAF2F8" fill-opacity="1" stroke="#084b8a" stroke-width="1"/></g></g><text x="110" y="33.00000000000001" text-anchor="middle" dominant-baseline="middle" fill="#15395E" font-size="16" font-family="Inter, system-ui, sans-serif" font-weight="600" style="user-select:none;font-size:16px">Transfer Agent</text><text x="110" y="50.60000000000001" text-anchor="middle" dominant-baseline="middle" fill="#15395E" font-size="9" font-family="Inter, system-ui, sans-serif" font-weight="400" opacity="0.85" style="user-select:none;font-size:9px">Transfer Agency Platform</text><text x="110" y="63.20000000000001" text-anchor="middle" dominant-baseline="middle" fill="#15395E" font-size="12" font-family="Inter, system-ui, sans-serif" font-weight="400" opacity="0.7" style="user-select:none;font-size:12px">[Container: Transfer Agency</text><text x="110" y="80" text-anchor="middle" dominant-baseline="middle" fill="#15395E" font-size="12" font-family="Inter, system-ui, sans-serif" font-weight="400" opacity="0.7" style="user-select:none;font-size:12px">Platform]</text><text x="110" y="96.8" text-anchor="middle" dominant-baseline="middle" fill="#15395E" font-size="12" font-family="Inter, system-ui, sans-serif" font-weight="400" opacity="0.7" style="user-select:none;font-size:12px">Official shareholder record</text><text x="110" y="113.6" text-anchor="middle" dominant-baseline="middle" fill="#15395E" font-size="12" font-family="Inter, system-ui, sans-serif" font-weight="400" opacity="0.7" style="user-select:none;font-size:12px">and investor servicing.</text></g></g>
<g transform="translate(1362 640.0012)"><g opacity="1"><g class="rf-node-root" style="--node-border:#084b8a;--node-fill:#EAF2F8;--node-fill-hover:rgb(235, 242, 248);--accent:var(--accent, var(--editor-node-border-hover, var(--vscode-focusBorder, #3b82f6)));--node-shape-transition:transform 140ms ease-out, stroke 140ms ease-out, stroke-width 140ms ease-out, fill 140ms ease-out, filter 140ms ease-out" opacity="1"><g class="node-hitbox"><rect x="0" y="0" width="220" height="150" fill="transparent" fill-opacity="0.001"/></g><g class="node-visual" style="transition:filter 140ms ease-out"><rect class="node-shape" x="0.5" y="0.5" width="219" height="149" rx="12" ry="12" fill="#EAF2F8" fill-opacity="1" stroke="#084b8a" stroke-width="1"/></g></g><text x="110" y="16.20000000000001" text-anchor="middle" dominant-baseline="middle" fill="#15395E" font-size="16" font-family="Inter, system-ui, sans-serif" font-weight="600" style="user-select:none;font-size:16px">Fund Accounting / NAV</text><text x="110" y="33.80000000000001" text-anchor="middle" dominant-baseline="middle" fill="#15395E" font-size="9" font-family="Inter, system-ui, sans-serif" font-weight="400" opacity="0.85" style="user-select:none;font-size:9px">Fund Accounting Platform</text><text x="110" y="46.40000000000001" text-anchor="middle" dominant-baseline="middle" fill="#15395E" font-size="12" font-family="Inter, system-ui, sans-serif" font-weight="400" opacity="0.7" style="user-select:none;font-size:12px">[Container: Fund Accounting</text><text x="110" y="63.20000000000001" text-anchor="middle" dominant-baseline="middle" fill="#15395E" font-size="12" font-family="Inter, system-ui, sans-serif" font-weight="400" opacity="0.7" style="user-select:none;font-size:12px">Platform]</text><text x="110" y="80" text-anchor="middle" dominant-baseline="middle" fill="#15395E" font-size="12" font-family="Inter, system-ui, sans-serif" font-weight="400" opacity="0.7" style="user-select:none;font-size:12px">Valuation, position</text><text x="110" y="96.8" text-anchor="middle" dominant-baseline="middle" fill="#15395E" font-size="12" font-family="Inter, system-ui, sans-serif" font-weight="400" opacity="0.7" style="user-select:none;font-size:12px">confirmation and</text><text x="110" y="113.6" text-anchor="middle" dominant-baseline="middle" fill="#15395E" font-size="12" font-family="Inter, system-ui, sans-serif" font-weight="400" opacity="0.7" style="user-select:none;font-size:12px">authoritative issuance /</text><text x="110" y="130.39999999999998" text-anchor="middle" dominant-baseline="middle" fill="#15395E" font-size="12" font-family="Inter, system-ui, sans-serif" font-weight="400" opacity="0.7" style="user-select:none;font-size:12px">redemption events.</text></g></g>
<g transform="translate(1690 266.0012)"><g opacity="1"><g class="rf-node-root" style="--node-border:#084b8a;--node-fill:#EAF2F8;--node-fill-hover:rgb(235, 242, 248);--accent:var(--accent, var(--editor-node-border-hover, var(--vscode-focusBorder, #3b82f6)));--node-shape-transition:transform 140ms ease-out, stroke 140ms ease-out, stroke-width 140ms ease-out, fill 140ms ease-out, filter 140ms ease-out" opacity="1"><g class="node-hitbox"><rect x="0" y="0" width="220" height="150" fill="transparent" fill-opacity="0.001"/></g><g class="node-visual" style="transition:filter 140ms ease-out"><rect class="node-shape" x="0.5" y="0.5" width="219" height="149" rx="12" ry="12" fill="#EAF2F8" fill-opacity="1" stroke="#084b8a" stroke-width="1"/></g></g><text x="110" y="33.00000000000001" text-anchor="middle" dominant-baseline="middle" fill="#15395E" font-size="16" font-family="Inter, system-ui, sans-serif" font-weight="600" style="user-select:none;font-size:16px">Custodian / Settle...</text><text x="110" y="50.60000000000001" text-anchor="middle" dominant-baseline="middle" fill="#15395E" font-size="9" font-family="Inter, system-ui, sans-serif" font-weight="400" opacity="0.85" style="user-select:none;font-size:9px">Custody Platform</text><text x="110" y="63.20000000000001" text-anchor="middle" dominant-baseline="middle" fill="#15395E" font-size="12" font-family="Inter, system-ui, sans-serif" font-weight="400" opacity="0.7" style="user-select:none;font-size:12px">[Container: Custody</text><text x="110" y="80" text-anchor="middle" dominant-baseline="middle" fill="#15395E" font-size="12" font-family="Inter, system-ui, sans-serif" font-weight="400" opacity="0.7" style="user-select:none;font-size:12px">Platform]</text><text x="110" y="96.8" text-anchor="middle" dominant-baseline="middle" fill="#15395E" font-size="12" font-family="Inter, system-ui, sans-serif" font-weight="400" opacity="0.7" style="user-select:none;font-size:12px">Safekeeping, cash movement</text><text x="110" y="113.6" text-anchor="middle" dominant-baseline="middle" fill="#15395E" font-size="12" font-family="Inter, system-ui, sans-serif" font-weight="400" opacity="0.7" style="user-select:none;font-size:12px">and settlement confirmation.</text></g></g>
<g transform="translate(1690 764.0012)"><g opacity="1"><g class="rf-node-root" style="--node-border:#084b8a;--node-fill:#EAF2F8;--node-fill-hover:rgb(235, 242, 248);--accent:var(--accent, var(--editor-node-border-hover, var(--vscode-focusBorder, #3b82f6)));--node-shape-transition:transform 140ms ease-out, stroke 140ms ease-out, stroke-width 140ms ease-out, fill 140ms ease-out, filter 140ms ease-out" opacity="1"><g class="node-hitbox"><rect x="0" y="0" width="220" height="150" fill="transparent" fill-opacity="0.001"/></g><g class="node-visual" style="transition:filter 140ms ease-out"><rect class="node-shape" x="0.5" y="0.5" width="219" height="149" rx="12" ry="12" fill="#EAF2F8" fill-opacity="1" stroke="#084b8a" stroke-width="1"/></g></g><text x="110" y="24.60000000000001" text-anchor="middle" dominant-baseline="middle" fill="#15395E" font-size="16" font-family="Inter, system-ui, sans-serif" font-weight="600" style="user-select:none;font-size:16px">Portfolio / Rule 2...</text><text x="110" y="42.20000000000001" text-anchor="middle" dominant-baseline="middle" fill="#15395E" font-size="9" font-family="Inter, system-ui, sans-serif" font-weight="400" opacity="0.85" style="user-select:none;font-size:9px">Portfolio / Risk Platform</text><text x="110" y="54.80000000000001" text-anchor="middle" dominant-baseline="middle" fill="#15395E" font-size="12" font-family="Inter, system-ui, sans-serif" font-weight="400" opacity="0.7" style="user-select:none;font-size:12px">[Container: Portfolio / Risk</text><text x="110" y="71.60000000000001" text-anchor="middle" dominant-baseline="middle" fill="#15395E" font-size="12" font-family="Inter, system-ui, sans-serif" font-weight="400" opacity="0.7" style="user-select:none;font-size:12px">Platform]</text><text x="110" y="88.4" text-anchor="middle" dominant-baseline="middle" fill="#15395E" font-size="12" font-family="Inter, system-ui, sans-serif" font-weight="400" opacity="0.7" style="user-select:none;font-size:12px">Portfolio controls,</text><text x="110" y="105.2" text-anchor="middle" dominant-baseline="middle" fill="#15395E" font-size="12" font-family="Inter, system-ui, sans-serif" font-weight="400" opacity="0.7" style="user-select:none;font-size:12px">eligibility rules and</text><text x="110" y="122" text-anchor="middle" dominant-baseline="middle" fill="#15395E" font-size="12" font-family="Inter, system-ui, sans-serif" font-weight="400" opacity="0.7" style="user-select:none;font-size:12px">operational constraints.</text></g></g>
<g transform="translate(2018 515.0011999999999)"><g opacity="1"><g class="rf-node-root" style="--node-border:#084b8a;--node-fill:#EAF2F8;--node-fill-hover:rgb(235, 242, 248);--accent:var(--accent, var(--editor-node-border-hover, var(--vscode-focusBorder, #3b82f6)));--node-shape-transition:transform 140ms ease-out, stroke 140ms ease-out, stroke-width 140ms ease-out, fill 140ms ease-out, filter 140ms ease-out" opacity="1"><g class="node-hitbox"><rect x="0" y="0" width="220" height="150" fill="transparent" fill-opacity="0.001"/></g><g class="node-visual" style="transition:filter 140ms ease-out"><rect class="node-shape" x="0.5" y="0.5" width="219" height="149" rx="12" ry="12" fill="#EAF2F8" fill-opacity="1" stroke="#084b8a" stroke-width="1"/></g></g><text x="110" y="24.60000000000001" text-anchor="middle" dominant-baseline="middle" fill="#15395E" font-size="16" font-family="Inter, system-ui, sans-serif" font-weight="600" style="user-select:none;font-size:16px">Reporting / Audit</text><text x="110" y="42.20000000000001" text-anchor="middle" dominant-baseline="middle" fill="#15395E" font-size="9" font-family="Inter, system-ui, sans-serif" font-weight="400" opacity="0.85" style="user-select:none;font-size:9px">Reporting Platform</text><text x="110" y="54.80000000000001" text-anchor="middle" dominant-baseline="middle" fill="#15395E" font-size="12" font-family="Inter, system-ui, sans-serif" font-weight="400" opacity="0.7" style="user-select:none;font-size:12px">[Container: Reporting</text><text x="110" y="71.60000000000001" text-anchor="middle" dominant-baseline="middle" fill="#15395E" font-size="12" font-family="Inter, system-ui, sans-serif" font-weight="400" opacity="0.7" style="user-select:none;font-size:12px">Platform]</text><text x="110" y="88.4" text-anchor="middle" dominant-baseline="middle" fill="#15395E" font-size="12" font-family="Inter, system-ui, sans-serif" font-weight="400" opacity="0.7" style="user-select:none;font-size:12px">Operations reporting, audit</text><text x="110" y="105.2" text-anchor="middle" dominant-baseline="middle" fill="#15395E" font-size="12" font-family="Inter, system-ui, sans-serif" font-weight="400" opacity="0.7" style="user-select:none;font-size:12px">evidence and management</text><text x="110" y="122" text-anchor="middle" dominant-baseline="middle" fill="#15395E" font-size="12" font-family="Inter, system-ui, sans-serif" font-weight="400" opacity="0.7" style="user-select:none;font-size:12px">information.</text></g></g>
<g transform="translate(1362 1262.0012)"><g opacity="1"><g class="rf-node-root" style="--node-border:#084b8a;--node-fill:#EAF2F8;--node-fill-hover:rgb(235, 242, 248);--accent:var(--accent, var(--editor-node-border-hover, var(--vscode-focusBorder, #3b82f6)));--node-shape-transition:transform 140ms ease-out, stroke 140ms ease-out, stroke-width 140ms ease-out, fill 140ms ease-out, filter 140ms ease-out" opacity="1"><g class="node-hitbox"><rect x="0" y="0" width="220" height="150" fill="transparent" fill-opacity="0.001"/></g><g class="node-visual" style="transition:filter 140ms ease-out"><rect class="node-shape" x="0.5" y="0.5" width="219" height="149" rx="12" ry="12" fill="#EAF2F8" fill-opacity="1" stroke="#084b8a" stroke-width="1"/></g></g><text x="110" y="24.60000000000001" text-anchor="middle" dominant-baseline="middle" fill="#15395E" font-size="16" font-family="Inter, system-ui, sans-serif" font-weight="600" style="user-select:none;font-size:16px">Tokenization Engine</text><text x="110" y="42.20000000000001" text-anchor="middle" dominant-baseline="middle" fill="#15395E" font-size="9" font-family="Inter, system-ui, sans-serif" font-weight="400" opacity="0.85" style="user-select:none;font-size:9px">Internal Service</text><text x="110" y="54.80000000000001" text-anchor="middle" dominant-baseline="middle" fill="#15395E" font-size="12" font-family="Inter, system-ui, sans-serif" font-weight="400" opacity="0.7" style="user-select:none;font-size:12px">[Container: Internal</text><text x="110" y="71.60000000000001" text-anchor="middle" dominant-baseline="middle" fill="#15395E" font-size="12" font-family="Inter, system-ui, sans-serif" font-weight="400" opacity="0.7" style="user-select:none;font-size:12px">Service]</text><text x="110" y="88.4" text-anchor="middle" dominant-baseline="middle" fill="#15395E" font-size="12" font-family="Inter, system-ui, sans-serif" font-weight="400" opacity="0.7" style="user-select:none;font-size:12px">Orchestrates mint, burn,</text><text x="110" y="105.2" text-anchor="middle" dominant-baseline="middle" fill="#15395E" font-size="12" font-family="Inter, system-ui, sans-serif" font-weight="400" opacity="0.7" style="user-select:none;font-size:12px">wallet mapping and policy</text><text x="110" y="122" text-anchor="middle" dominant-baseline="middle" fill="#15395E" font-size="12" font-family="Inter, system-ui, sans-serif" font-weight="400" opacity="0.7" style="user-select:none;font-size:12px">enforcement.</text></g></g>
<g transform="translate(2018 1262.0012)"><g opacity="1"><g class="rf-node-root" style="--node-border:#084b8a;--node-fill:#EAF2F8;--node-fill-hover:rgb(235, 242, 248);--accent:var(--accent, var(--editor-node-border-hover, var(--vscode-focusBorder, #3b82f6)));--node-shape-transition:transform 140ms ease-out, stroke 140ms ease-out, stroke-width 140ms ease-out, fill 140ms ease-out, filter 140ms ease-out" opacity="1"><g class="node-hitbox"><rect x="0" y="0" width="220" height="150" fill="transparent" fill-opacity="0.001"/></g><g class="node-visual" style="transition:filter 140ms ease-out"><rect class="node-shape" x="0.5" y="0.5" width="219" height="149" rx="12" ry="12" fill="#EAF2F8" fill-opacity="1" stroke="#084b8a" stroke-width="1"/></g></g><text x="110" y="24.60000000000001" text-anchor="middle" dominant-baseline="middle" fill="#15395E" font-size="16" font-family="Inter, system-ui, sans-serif" font-weight="600" style="user-select:none;font-size:16px">Reconciliation Engine</text><text x="110" y="42.20000000000001" text-anchor="middle" dominant-baseline="middle" fill="#15395E" font-size="9" font-family="Inter, system-ui, sans-serif" font-weight="400" opacity="0.85" style="user-select:none;font-size:9px">Internal Control Service</text><text x="110" y="54.80000000000001" text-anchor="middle" dominant-baseline="middle" fill="#15395E" font-size="12" font-family="Inter, system-ui, sans-serif" font-weight="400" opacity="0.7" style="user-select:none;font-size:12px">[Container: Internal Control</text><text x="110" y="71.60000000000001" text-anchor="middle" dominant-baseline="middle" fill="#15395E" font-size="12" font-family="Inter, system-ui, sans-serif" font-weight="400" opacity="0.7" style="user-select:none;font-size:12px">Service]</text><text x="110" y="88.4" text-anchor="middle" dominant-baseline="middle" fill="#15395E" font-size="12" font-family="Inter, system-ui, sans-serif" font-weight="400" opacity="0.7" style="user-select:none;font-size:12px">Compares official shares</text><text x="110" y="105.2" text-anchor="middle" dominant-baseline="middle" fill="#15395E" font-size="12" font-family="Inter, system-ui, sans-serif" font-weight="400" opacity="0.7" style="user-select:none;font-size:12px">with expected token supply</text><text x="110" y="122" text-anchor="middle" dominant-baseline="middle" fill="#15395E" font-size="12" font-family="Inter, system-ui, sans-serif" font-weight="400" opacity="0.7" style="user-select:none;font-size:12px">and manages exceptions.</text></g></g>
<g transform="translate(1690 1262.0012)"><g opacity="1"><g class="rf-node-root" style="--node-border:#084b8a;--node-fill:#EAF2F8;--node-fill-hover:rgb(235, 242, 248);--accent:var(--accent, var(--editor-node-border-hover, var(--vscode-focusBorder, #3b82f6)));--node-shape-transition:transform 140ms ease-out, stroke 140ms ease-out, stroke-width 140ms ease-out, fill 140ms ease-out, filter 140ms ease-out" opacity="1"><g class="node-hitbox"><rect x="0" y="0" width="220" height="150" fill="transparent" fill-opacity="0.001"/></g><g class="node-visual" style="transition:filter 140ms ease-out"><rect class="node-shape" x="0.5" y="0.5" width="219" height="149" rx="12" ry="12" fill="#EAF2F8" fill-opacity="1" stroke="#084b8a" stroke-width="1"/></g></g><text x="110" y="33.00000000000001" text-anchor="middle" dominant-baseline="middle" fill="#15395E" font-size="16" font-family="Inter, system-ui, sans-serif" font-weight="600" style="user-select:none;font-size:16px">Smart Contract / M...</text><text x="110" y="50.60000000000001" text-anchor="middle" dominant-baseline="middle" fill="#15395E" font-size="9" font-family="Inter, system-ui, sans-serif" font-weight="400" opacity="0.85" style="user-select:none;font-size:9px">Blockchain Smart Contract</text><text x="110" y="63.20000000000001" text-anchor="middle" dominant-baseline="middle" fill="#15395E" font-size="12" font-family="Inter, system-ui, sans-serif" font-weight="400" opacity="0.7" style="user-select:none;font-size:12px">[Container: Blockchain Smart</text><text x="110" y="80" text-anchor="middle" dominant-baseline="middle" fill="#15395E" font-size="12" font-family="Inter, system-ui, sans-serif" font-weight="400" opacity="0.7" style="user-select:none;font-size:12px">Contract]</text><text x="110" y="96.8" text-anchor="middle" dominant-baseline="middle" fill="#15395E" font-size="12" font-family="Inter, system-ui, sans-serif" font-weight="400" opacity="0.7" style="user-select:none;font-size:12px">Controlled on-chain mirror</text><text x="110" y="113.6" text-anchor="middle" dominant-baseline="middle" fill="#15395E" font-size="12" font-family="Inter, system-ui, sans-serif" font-weight="400" opacity="0.7" style="user-select:none;font-size:12px">representation of ownership.</text></g></g>
</svg>
